<svg width="111" height="110" fill="none" xmlns="http://www.w3.org/2000/svg"><path fill-rule="evenodd" clip-rule="evenodd" d="M9.1 95.1c2 9.7 5.7 14.4 13.3 14.4h66.8c7.5 0 13-1.7 18.9-45.1l2.2-21.4c1-13.8.5-19 .5-19-.5-11.4-4.7-15.8-12.3-18 0 0-5.2-1.6-13.2-3.1C77.3 1.4 63.2.5 55.7.5c-7.4 0-21.6 1-29.5 2.4C18.2 4.4 13 6 13 6 5.4 8.3 1.2 12.7.6 24c0 0-.5 5.3.6 19.2l2.3 21.3C6 83.4 8.9 94.1 9 95.1z" fill="url(#paint0_radial)"/><mask id="a" maskUnits="userSpaceOnUse" x="0" y="0" width="111" height="110"><path d="M55.7.5c7.5 0 21.7 1 29.6 2.4 8 1.5 13.2 3 13.2 3 7.6 2.3 11.8 6.7 12.3 18 0 0 .6 5.3-.5 19.1l-1.1 10.7v.6L108 64.4c-5.9 43.4-11.4 45.1-19 45.1h-1-1.2-1.1-1-1.1H61 57.4h-35c-7.6 0-11.3-4.7-13.3-14.4-.2-1-3.1-11.7-5.6-30.7v-.3l-.1-.2v-.4l-1-9.4-.1-.7-1.1-10.3C.1 29.2.6 24 .6 24 1.2 12.7 5.4 8.3 13 6c0 0 5.2-1.6 13.2-3" fill="white"/></mask><g mask="url(#a)" fill-rule="evenodd" clip-rule="evenodd"><path d="M68 62.8c-8.1.8-27.2 6-42-3 6.5 8.3 14 15.7 28.4 9.9 18.9-7.6 25.3-6.1 31-.2.7-2 1.6-1.7 2-4.4-5.2-3.4-14.8-2.7-19.4-2.3z" fill="#86B825"/><path d="M49 59.2c-12-7.6-19.2-1.2-25-2.4 2.4 3.7 9.3 4.9 13.8 5.6 6.4 1 15.7 1.1 22.9-.3-3.7-.1-6.3.6-11.8-2.9z" fill="#86B825"/><path d="M55.8 4.3c-6.8 0-21 .9-29 2.3C19.6 8 14.6 9.4 14 9.6 8.2 11.4 5 14.3 4.4 24.2v.2s-.5 5.3.6 18.4L7.2 64A253.2 253.2 0 0013 94.4c2 10.5 5.8 11.4 9.5 11.4h66.8c4.6 0 9.5 0 15.1-41.8l2.2-21.3c1-13 .6-18.3.6-18.4v-.2c-.5-9.9-3.8-12.7-9.7-14.6C97 9.4 92 8 84.6 6.6a203 203 0 00-28.8-2.3zM53.6 108H22.4c-6.4 0-9.7-3.8-11.6-13.1v-.1c-.4-1.2-3.2-12-5.7-30.4C5.1 63.3 3 43.5 3 43c-1-13.3-.6-18.6-.6-18.8V24C2.8 13 7 9.6 13.4 7.6c.6-.2 5.7-1.6 13-3C34.6 3 49 2.3 55.9 2.3 62.6 2.3 77 3 85 4.6c7.4 1.4 12.5 2.8 13 3 6.5 2 10.6 5.4 11.2 16.4v.1s.5 5.4-.6 18.8l-2.2 21.3c-2.7 19.6-5.3 31.6-8.3 37.7-3 6-6.1 6-9 6H53.7z" fill="white"/><path d="M79.4 85l-.1 1.5V87.3l.1.3h-.3l-.4-.1-.3-.2-.6-.1c-.3 0-.7 0-1 .2l-.8.9-.5.6c-1 1-2 1.5-3 1.5a2 2 0 01-.5 0c-1.8-.2-2.3-2-2.6-3.6v-.3h.2l3.3-.4 1.7-.3 1.1-.2c1.3-.1 2.6-.3 3.4-.8l.4-.2v.4zM69.8 82c.4-.9 1-1.8 2.2-2h.5c.9.2 1.1 1 1.3 1.5v.2h-.2l-1.5.3c-.7 0-1.4.2-2 .3h-.4l.1-.3zm-11.4-1.8c0 .7 0 1.5-.2 2.3l-.5 6v.5c0 1-.1 1.8-.5 2.1-.2.2-.5.2-.8.2-.6 0-1.2-.3-1.5-.5-.7-.6-1.2-1.9-1.2-3.7v-.8c0-2.3.9-5.2 2.4-6.2.4-.2.9-.4 1.3-.4s.7.1 1 .3v.2zm-16.8 7.1v.8l-.1 1.5v.3c-.1.8-.2 1.8-1.1 1.8h-.5c-.6 0-1-.3-1.2-.8-.3-.7 0-2 .4-2.4.1-.1.3-.2.3-.4a6 6 0 012-1h.3v.2zm48.2 8l.2-.2a8 8 0 003-2.8c.4-.6 1.6-2.8.9-4.3-.3-.6-1-1-1.6-1l-.6.1c-.6.3-1 .8-1.4 1.4L89 90c-.3.2-.8.3-1.3.3-.4 0-.7 0-1-.2-.9-.4-1.5-1.5-1.7-2.9-.5-2.3.1-5 1.2-6.2.2 0 .3-.2.4-.3.5-.4 1-.6 1.5-.4.7.2 1 .9 1.2 1.6l.3.7c.3.5 1 1.3 2.2 1.3 1 0 1.8-.4 2.3-1.3a4 4 0 00.2-3.7c-1-2-2.8-3-5.3-3.3h-1c-2 .1-3.6.8-5 2.1l-.6.5-1.5 2.1v.2l-.3.4-.1.4-.2.5h-.4c-.4-1.9-1-3.3-2-4.3a6.5 6.5 0 00-4.4-2 8.7 8.7 0 00-6.7 2.7c-1 1.3-1.6 2.4-2 3.7h-.4l.5-6.3.4-3.9v-.3c-.1-.8-.5-1.2-1.3-1.4a1.8 1.8 0 00-1 0c-.5.1-.8.6-1 1.1l-.4.7-.8 1.1c-.7.9-1.5 1.8-1.8 2.9v.1h-.3c-.6-.2-1.3-.3-2-.3a7.8 7.8 0 00-5.8 2.6c-1.3 1.4-2.1 3-2.6 4.7h-.4V82c0-.3.1-.6 0-.8h.1v-.6c-.1-3.2-1.9-4.8-5.3-5h-1.1a9.4 9.4 0 00-6.1 2.5c-.8.8-1.7 2.5-1 4 .4.8 1.1 1.2 2.1 1.4h.5c.6 0 1.1-.3 1.6-.6l.3-.3c.3-.3.4-.7.6-1 .3-.8.6-1.4 1.3-1.6l.5-.1.5.1c.2.2.3.6.3 1.5l-.1.7V83h-.2c-2.6.7-5.5 1.5-7.3 3.2-.2 0-.3.2-.4.3a7.6 7.6 0 00-1 1.4l-.4.6.1-.8.6-6.4v-.6c-.3-3.3-2.4-5-6.4-5h-1.4c-2.8 0-5.2.7-7 1.9-.8.6-1.4 1.1-1.6 2v.3c0 .4.2.6.4.9l.1.1.3.4V82.2l-1 10.5v.3c-.1 1.3-.2 2.2.7 2.5l.5.1a14.4 14.4 0 003.7 0c1-.4 1.1-2 1.2-3.3v-.9l.4-4.5.4-4.7c.1-1.1.2-2.3 1.8-2.3h.4c.5 0 .9.1 1 .3.3.3.4.6.4 1.1v.3l-1 11.1c0 1.4-.1 2.3.6 2.7.4.2.9.3 1.5.3h1.4c1.2 0 2-.1 2.3-.9.2-.3.2-.8.2-1.3v-.8h.5c.8 2.1 2.8 3.2 6 3.4h1.3c2.5-.1 4.3-.7 5.6-1.7l.4-.4c.8-.8 1-2.3 1-3.8l.1-.7h.4a8 8 0 001.9 4.3l.4.4c1.3 1.2 3 1.8 5 1.9h1.2c1.7-.1 3.3-.5 4.7-1l.3-.2h.1c1.6-.7 2.3-2.4 2.4-5.4h.4a8.8 8.8 0 002.3 4.8l1.4 1h.2l.2.1c1 .4 1.9.6 2.8.7h1c3.5-.4 5.8-2.2 7.3-5.8l.2-.5.1.5a8.8 8.8 0 002.3 4.2c1.2 1 2.4 1.5 4 1.6h1a8.6 8.6 0 003-.8z" fill="white"/><path d="M56.2 75.8h0zm-30.6 0h1.5-1.5zm47 0h1-1z" fill="#2F2980"/><path d="M72.7 77h0zm.5 0h.3-.3zM57 78.5h.8-.8zm30.4.4h.7-.7zm-27.6.6v.4-.4zm-16.3 1.3v.4-.4zm-24.3.1v.6-.6zm27.5.2v0z" fill="#009EE2"/><path d="M68.3 85.4h.7c-.6.1-1 .6-.8 1.4v-.6c0-.3-.1-.6 0-.8z" fill="#00B4EC"/><path d="M52.4 85.9v0z" fill="#009EE2"/><path d="M47.8 87v0z" fill="#2F2980"/><path d="M48.8 87.4v0zm-30.4 7h2.7-2.7zm9.6 0h2.7H28zm27.9.4h.3H55.9z" fill="#009EE2"/><path d="M56.2 94.8h0z" fill="#00B4EC"/><path d="M49.4 94c.2 0 .4.2.5.4l-.5-.5zm-3.4.5l.4-.4-.4.4z" fill="#009EE2"/><path d="M50.3 94.2c-1.6-1.3-2.5-3.3-2.5-6.1v-1c0-1.3.2-2.4.4-3.3v.4c.6 0 .7-.6.8-1 .8-2.5 2.1-4.5 4-6 .4-.2 1-.6 1-.9a6 6 0 012.2-.5h.3c1 0 1.8 0 2.5.4v-.1c0 .1.1 0 .2 0 .5.2.9-.9 1-1.2.8-1.2 1.7-2.1 2.5-3.4.2-.3.6-.8.2-1.2h1.3l-.3 1.1h-.5c-.4 1-1.1 1.7-1.8 2.6-.6.8-1.4 1.7-1.6 2.8 0 .3 0 .8-.2 1-.5 0-.9-.4-1.3-.5-1.6-.8-3.8-.2-5.1.6-2.9 1.8-4.3 5.3-4.6 9.5v.4c.2 4.5 2.4 7 7 7h.2l-2.3-.1c-1-.1-2.1-.5-2.7 0l-.7-.5z" fill="#00B4EC"/><path d="M53.4 95.7a6.4 6.4 0 01-3-1.5c.1.2.3.3.6.4.6-.4 1.7 0 2.7.1.7.1 1.5.2 2.3 0h.5c1 0 2-.2 3-.6.9-.2 1.8-.6 2.3-1.3.3-.6.4-1.4.5-2.4l1.4-16c.1-1 .3-2 .2-3l.3-1.1.5.2c-.2.3-.4.5-.4.8l-.1 1.5-1 10.1c0 1 0 2-.2 3-.1 1.7-.2 3.8-.5 5.6-.2 1-.5 1.6-1 2.1A8 8 0 0158 95l-2 .4c-.8 0-1.9.1-2.6.3z" fill="#2F2980"/><path d="M57 78.6c-.9.1-1.5.5-2 1-.2 0-.4.2-.5.4a9.8 9.8 0 00-2 5.9v.3c-.1 2.2.2 4 1.2 5.2.6.6 1.2 1.2 2.2 1.2 1.7.2 2.7-.5 3-1.9l.2-3.5.7-7.2v-.4a3 3 0 00-2-1 2 2 0 00-.8 0zM56 94.8c-4.7 0-6.9-2.5-7-7v-.4c.2-4.2 1.6-7.7 4.5-9.5 1.3-.8 3.5-1.4 5.1-.6.4.1.8.5 1.3.5.3-.2.2-.7.2-1 .2-1.1 1-2 1.6-2.8.7-.9 1.4-1.6 1.8-2.6h.5a1047.6 1047.6 0 01-1.6 19c0 1-.2 1.8-.5 2.4-.5.7-1.4 1-2.3 1.3-1 .4-2 .5-3 .7h-.6z" fill="white"/><path d="M17.5 95.2c-.3-.1-.5-.4-.5-.9 0 .3.3 0 .4 0l.2-1.5.6-7.7.3-3c0-.3 0-.7-.4-.8v.2c0-.7-.7-.7-.7-1.4.6-.2.7-1 1.1-1.4l1-1c.5-.2 1-.4 1.2-.7l.1-.2c1.3-.6 3-1 4.8-1h1.5c1.2 0 2.2.2 3 .5.1.9.7 1.4 1.1 2-1-.9-2.3-1.3-4.1-1.3h-1.4c-1.3 0-2.7.2-3.9.6a8 8 0 00-3 1.6l-.3.6c0 .3.4.5.6.8l.1.4v.6c-.3 4.2-.8 8.4-1 12.7h2.1c-.7.3-1.5-.1-2 .1-.4.2-.4.8-.8.8z" fill="#00B4EC"/><path d="M27.2 80l-.8-.3c-.3-.7-1.6-.7-2.3-.3-1.2.8-1.3 2.5-1.4 4.4l-.8 8.7c0 1 0 2-.8 2.3-.7.3-1.9 0-2.6.3-.2 0-.2.2-.5.3-.2 0-.4 0-.5-.2.4 0 .4-.6.8-.8.5-.2 1.3.2 2 0h.8l.4-.1.4-3.6.6-7.2c.1-1.4.1-3 .9-3.9l.3-.3c.4-.4 1-.6 1.7-.7h1c.6 0 .9.7.6 1.3l.2.2z" fill="#2F2980"/><path d="M27 95.1c-.3-.1-.4-.4-.5-.8.1.2.4 0 .4-.1.2-.3.2-1 .3-1.5l.6-7.9c.1-1 .3-2.2.2-3.2 0-.4 0-.7-.4-.8l-.4-.7-.2-.2c.3-.6 0-1.3-.7-1.3 1.5.2 2.3 1 2.4 2.4v1c-.3 4-.8 8.1-1 12.2l.3.1h2c-.8.3-1.6-.1-2.2.1-.3.2-.4.7-.7.8H27z" fill="#00B4EC"/><path d="M27 95.1l.1.1c.3 0 .4-.6.7-.8.6-.2 1.4.2 2.1 0h.8l.3-.1c.3-1 .3-2.1.4-3.2l.8-9.7v-.3a4 4 0 00-1-2.8c-.4-.6-1-1.1-1-2l1.5 1c0 .5.3 1 .4 1.6.5 1.3.3 2.8.2 4.5l-.4 4.6-.2 3c-.2 1.4-.1 3.4-1 3.8-.6.4-1.8 0-2.6.3-.2 0-.3.2-.5.3-.3 0-.5 0-.6-.3zm8-12.7l.5.5-.5-.5zm1.6-.2c1.7.2 1.8-1.3 2.4-2.3.5-.7 1-1.1 2-1.2h.6c.3 0 .4 0 .5.2.1.3-.3.8 0 1a.8.8 0 00-.6-.2c-.3-1-1.5-.4-2 0-.5.7-.7 1.7-1.4 2.4-.4.4-1 .5-1.4.7-.1.1-.2.3-.5.4-.2 0-.5-.1-.7-.3.3-.3.5-.7 1.1-.7zm-2.8 11.7z" fill="#2F2980"/><path d="M34.7 94.7l-.3-.2a11 11 0 00-.6-.6c-1.2-1-1.4-4-.5-5.6v.4c.4.1.6-.2.7-.4.6-1.1 1.4-2 2.4-2.7.4-.3 1-.6 1.2-.9 0 0 .2-.1 0-.1 1.3-.5 2.5-.9 3.9-1.2 0 .2.4 0 .7.1.7-.1 1-2.6.1-3 0-.2 0-.5-.3-.6-.2-.2.2-.7 0-1 0-.2-.1-.1-.4-.2h.1c1.2.1 1.7.9 1.8 2.2v.4l-.2 2.6c-.4.3-1 .4-1.5.5-3.5 1-7.6 2-8 6-.1 3.1 2.3 4.2 5 4.4H40h-2.2c-1-.2-2-.6-2.7-.2 0 0-.1.3-.2.1z" fill="#00B4EC"/><path d="M34.7 94.7h.1c0 .2.1 0 .2 0 .7-.5 1.8 0 2.7 0 .8.1 1.5.2 2.3 0h.5c1 0 1.9-.2 2.6-.4.8-.3 1.8-.7 2.2-1.2.4-.6.6-1.7.7-2.6l.7-9v-.3c.1-1.4-.2-2.4-.8-3.1-.4-.6-1-1-.9-1.9l1.4.8c-.1.7.3 1.5.5 2.2v2c0 2.7-.4 5.6-.6 8.2-.1 1.4-.2 2.8-.7 3.7-.6 1.1-2.2 1.7-3.6 2l-2.4.3c-.9.1-1.8 0-2.6.2-.9-.2-1.7-.4-2.3-.9z" fill="#2F2980"/><path d="M67 94.4c-1.8-1.3-2.8-3.5-2.9-6.6v-1.2c0-1.5.3-2.8.6-4l.1.5c.5 0 .6-.5.7-.8.6-1.8 1.6-3.2 2.8-4.4.6-.4 1.3-.7 1.7-1.2v-.3a7 7 0 012.6-.6h1c.8 0 1.4.2 2 .4.3 1.4 1.5 1.9 2 3a5 5 0 00-4.1-2.2H73c-.2 0-.3-.1-.4 0-5.2.5-7.3 4.4-7.5 10v.4c.2 4.5 2 7.3 6.5 7.4-1.5.2-3.2-.7-4.3 0l-.4-.4z" fill="#00B4EC"/><path d="M69.7 95.7c-1.1-.2-2-.7-2.7-1.3l.4.4c1.1-.7 2.8.2 4.3 0a6.7 6.7 0 005.7-3.6c.4-.6 1-1.7.7-2.5l.1-1.2h.3l.7 1v-.2l.1.6v.3c-.1-.2-.5 0-.7 0-.9 3-2.7 5-5.7 6-1 .2-2 .2-3.2.5z" fill="#2F2980"/><path d="M79 88l.2.3v.1l-.7-.8c.2 0 .4.2.5.4z" fill="#00B4EC"/><path d="M82.6 94.8c.2.2.5-.1.7-.2 1-.1 2.3.4 3.3.2 1.8-.1 3-.8 4-1.7.2 0 .3-.2.4-.3.4-.4.8-1 1.1-1.7.4-.7.8-1.6.6-2.5l.1-1.2h-.1c.3 0 .4.1.6.3l-.2.7v.7c-.2 2-1.4 3.7-2.6 4.6-.7.6-1.4 1-2.3 1.3-.9.3-1.8.3-3 .6l-.4.1c-.8-.2-1.6-.5-2.2-1z" fill="#2F2980"/><path d="M90.5 83.3c-1-.5-1-2.3-2-3 .2-.5.2-1.4-.5-1.3.6 0 1 .2 1.3.4 0 .2.2.3.3.4.8.7.7 2.4 1.9 2.8-.5 0-.7.6-1 .7z" fill="#00B4EC"/><path d="M91.3 83.6c-.3 0-.6 0-.8-.3.3-.1.5-.6 1-.7 1.7.2 2.3-1.7 1.6-3-.5-1.4-1.8-2-2.1-3.4a6 6 0 011.8 1v.1c0 .5.3 1 .5 1.6.5 1 .6 2.8-.4 3.6-.5.4-1.2.6-1.6 1.1z" fill="#2F2980"/><path d="M93 88.4v.7c0 2-1.3 3.7-2.5 4.6-.7.6-1.4 1-2.3 1.3-.9.3-1.8.3-3 .6l-.4.1c-.8-.2-1.6-.5-2.2-1l-.2-.1-.3-.3c-1.6-1.4-2.4-3.5-2.6-6.2v-.2-.8-.6c0-.6 0-1 .2-1.6 0-1 .3-1.8.6-2.6a9 9 0 015.1-6 7 7 0 012.6-.5h1a5.9 5.9 0 013.8 1.5c0 .5.3 1 .5 1.6.5 1 .6 2.8-.4 3.6-.5.4-1.2.6-1.6 1.1-.3 0-.6 0-.8-.3-1-.5-1-2.3-2-3l-.4-.3c-.2-.2-.3-.5-.7-.5-.3 0-.7 0-.9.2-.2 0-.6.3-.8.6-1.6 1.5-2.5 5.2-1.3 8 .3.7.8 1.6 1.7 1.6l.8.5c.5.2 1.3.2 1.8 0 1.4-.6 1.8-2.2 3-3h1c.3 0 .4.1.6.3l-.2.7zm-14-1.3l.1.4-.6-.4c-.5-.2-1.3-.1-1.7.2-.6.3-1 1-1.4 1.5-.7.7-1.9 1.6-3.3 1.4-1.7-.2-2.2-1.7-2.5-3.5l5-.7c1.7-.3 3.5-.4 4.7-1l-.2 1.5v.6zm.3 2c-.1-.1-.6 0-.7.1-.9 3-2.7 5-5.7 6-1 .2-2 .2-3.2.5-1.1-.2-2-.7-2.7-1.3-1.8-1.3-2.8-3.5-2.9-6.6v-1.2c0-1.5.3-2.8.6-4a9 9 0 015.4-6.2 7 7 0 012.5-.6h1a6.1 6.1 0 013.8 1.5c.1.1 0 .2 0 .4l.6 1.1c.4.8.7 1.7.8 2.7.1.9.2 1.8-.2 2.4-.4.5-1.2.7-2 .8l-5 .7c-1.3.2-3 .1-3 1.6 0 .7.2 1.2.5 1.8.3.5.8 1.3 1.4 1.1l1 .6c.7.2 1.7.1 2.3-.2.8-.3 1.3-.8 1.8-1.3s.9-1.2 1.6-1.5c.2-.2.7-.2 1 0h.3l.5.5.2.3.1.6v.3zM63 85.9c-.1 1.8-.2 4-.5 5.7-.2 1-.5 1.6-1 2.1A8 8 0 0158 95l-2 .4c-.8 0-1.9.1-2.6.3a6.4 6.4 0 01-3-1.5c-1.7-1.3-2.6-3.3-2.6-6.1v-1c0-1.3.2-2.4.4-3.3 1-3.5 2.7-6.2 5.8-7.5a6 6 0 012.2-.5h.3c1 0 1.8.1 2.5.4v-.1c.6-1.8 2-3 3-4.4.2-.5.3-1.2 1-1.4h1.2l.5.2c-.2.3-.4.5-.4.8l-.1 1.5-1 10.1c0 1 0 2-.2 3zm-16-4.5l-.7 8c-.1 1.5-.2 3-.7 3.8-.6 1.1-2.2 1.7-3.6 2l-2.4.3c-.9.1-1.8 0-2.6.2-.9-.2-1.7-.4-2.3-.9l-.3-.2-.6-.6c-1.2-1-1.4-4-.5-5.6.9-1.8 2.4-3 4.4-3.7a26.6 26.6 0 014.5-1.4c0-.8.2-1.7.1-2.6 0-.3 0-.6-.3-.7a.9.9 0 00-.5-.2c-.3-1-1.5-.4-2 0-.5.7-.7 1.7-1.4 2.4-.4.4-1 .5-1.4.7-.1.1-.2.3-.5.4-.2 0-.5-.1-.7-.3l-.5-.5c-.2-.2-.4-.5-.5-1-.2-1.5.5-2.6 1.3-3.4.7-.6 1.6-1.2 2.5-1.5.9-.4 2-.6 3.3-.7a9.3 9.3 0 013.4.4l1.4.8c-.1.7.3 1.5.5 2.2v2zM31.7 91c-.2 1.6-.1 3.4-1 3.8-.6.4-1.8 0-2.6.3-.2 0-.3.2-.5.3-.3 0-.5 0-.6-.3-.3-.1-.4-.4-.5-.8.3-4.3.8-8.4 1-12.7v-.3-.5c0-.3-.1-.5-.3-.7l-.8-.4c-.3-.7-1.6-.7-2.3-.3-1.2.8-1.3 2.5-1.4 4.4l-.8 8.7c0 1 0 2-.8 2.3-.7.3-1.9 0-2.6.3-.2 0-.2.2-.5.3-.2 0-.4 0-.5-.2-.3-.1-.5-.4-.5-.9l1-12.8c.1-.7-.6-.7-.6-1.4v-.5c.4-1.6 2-2.2 3.4-2.8 1.3-.6 3-1 4.8-1h1.5c1.2 0 2.2.2 3 .5.7.3 1.1.6 1.6 1 0 .5.3 1 .4 1.6.5 1.3.3 2.8.2 4.5l-.4 4.6-.2 3zm60-4c-1.2.5-1.7 2.2-2.8 2.8-.5.3-1.4.5-2 .2-2.5-1.2-2.3-6.9-.5-8.8 0-.2.2-.3.3-.4.4-.3.9-.5 1.4-.4.8.3 1 1.6 1.3 2.3.4.7 1.2 1.4 2.4 1.4 2.6 0 3.8-2.9 2.6-5.3-1-2-2.7-3.1-5.4-3.4h-1a8.3 8.3 0 00-5.8 2.7l-1.5 2.2-.2.5-.4 1a8.4 8.4 0 00-2.3-4.7c-1-1-2.3-1.6-4.2-1.7h-1a8.8 8.8 0 00-5.9 2.8c-.9 1-1.6 2.2-2 3.6 0-3.3.5-6.7.8-10v-.4c-.1-1-.7-1.4-1.5-1.5h-1c-1 .1-1 1-1.5 1.8-.9 1.2-2.2 2.5-2.7 4a8 8 0 00-8 2.4C49.5 79.4 48.5 81 48 83v-1.7-.7c0-3.4-2-4.9-5.4-5h-1.1a9.4 9.4 0 00-6.3 2.5c-.8.9-1.7 2.7-1 4.2.5.8 1.2 1.3 2.3 1.4h.6a3 3 0 002-1c.6-.5.7-2.1 1.7-2.5h.9c.2.2.2 1 .2 1.4l-.2 1.4a16.6 16.6 0 00-7.7 3.5l-1 1.3.5-6.4v-.6c-.2-3.7-2.7-5.1-6.5-5.3h-1.5c-2.8.1-5.2.9-7 2-.8.5-1.5 1.2-1.7 2.2v.4c0 .4.2.6.4.9l.4.5v.8l-1 10.5c0 1.3-.3 2.5.8 3l.6.1c1 .1 3 .2 3.8-.1 1.3-.5 1.2-2.5 1.3-4.2l.8-9.3c.1-1.2.2-2.1 1.6-2.1h.4c.8 0 1.3.3 1.2 1.2v.3l-1 11.1c0 1.3-.1 2.4.8 3 .5.2 1.3.2 2.3.2 1.5 0 2.6 0 3-1 .3-.6.3-1.4.4-2.2.9 2.4 3 3.4 6.2 3.6h1.3c2.4-.1 4.4-.7 5.8-1.8l.4-.4c.9-1 1-2.8 1.1-4.6.3 1.9 1 3.3 2 4.4 0 .2.3.3.4.5 1.2 1 2.9 1.8 5 1.9h1.3c1.9-.1 3.5-.5 4.8-1.1l.4-.2c1.9-.8 2.4-2.9 2.5-5.5a9 9 0 002 4.6c.2 0 .3.2.4.3l1.4 1 .4.2c.9.3 1.8.6 2.9.7h1c4-.4 6.2-2.7 7.4-6a9 9 0 002.4 4.3c1 .9 2.3 1.6 4.1 1.7h1c1 0 2-.4 2.8-.7l.4-.2a8.2 8.2 0 003-2.9c.7-1 1.6-3 1-4.5a2 2 0 00-2.5-1z" fill="#2F2980"/><path d="M38.3 76.5c.9-.4 2-.6 3.3-.7h1.1c.9 0 1.6.2 2.3.4 0 .9.5 1.3.9 1.9a5 5 0 00-3.2-1.1h-1c-1.3 0-2.8.3-4 1-1 .6-2 1.5-2 2.8-.2.8.3 1.2 1 1.4-.7 0-.9.4-1.2.7l-.5-.5c-.2-.2-.4-.5-.5-1 .4.1.4-.5.6-.9a6 6 0 012-3c.4-.2 1.1-.6 1.2-1zm31 13.7c.5.5 1.7 1 2.1.3h.1c.7.2 1.7.1 2.3-.2.2.4 1 0 1.3-.2.6-.3 1-.8 1.6-1.4.2-.3.7-.8.5-1.2.2-.2.7-.2 1 0v1.2c-.6-.7-1.1.3-1.5.8-1.1 1.2-2.5 2.4-4.9 2.1a3.7 3.7 0 01-2.4-1.4z" fill="#00B4EC"/><path d="M69.4 90.2c-.7-.8-1.1-2-1.2-3.4-.1-.8.2-1.3.8-1.5l7-1c.7-.1 1.9-.2 2.2-.5.3-.2.4-.6.4-1 .1-1.4-.5-2.7-1-3.6-.5-1.1-1.7-1.6-2-3a6 6 0 011.8 1v.5l.6 1.1c.4.8.7 1.7.8 2.7.1.9.2 1.8-.2 2.4-.4.5-1.2.7-2 .8l-5 .7c-1.3.2-3 .1-3 1.6 0 .7.2 1.2.5 1.8.3.5.8 1.3 1.4 1.1l1 .6c-.5.8-1.7.2-2.1-.3z" fill="#2F2980"/><path d="M91 76.2c.3 1.5 1.6 2 2 3.3-.7-1.5-2-2.4-4.1-2.5H88c-4.6.4-6.7 3.7-7.4 8-.7 4.9.8 9.4 5.3 9.8h.6c-1 .2-2.3-.3-3.3-.2-.2 0-.5.4-.7.2l-.2-.2-.3-.3c-1.6-1.4-2.4-3.5-2.6-6.2.5-.2.4-1 .5-2 0-.4.2-1.3 0-1.4-.2 0-.3.1-.3.2 0-1 .3-1.8.6-2.6l.1.3c.4 0 .6-.5.7-.7.7-1.7 1.5-3 2.7-4l1.5-1.2.1-.3a7 7 0 012.6-.6h1c.8 0 1.4.2 2 .4z" fill="#00B4EC"/><path d="M28.7 81c0-1.5-.9-2.2-2.4-2.4h-.9a2.8 2.8 0 00-2 1c-.8.8-.8 2.5-1 3.9l-.5 7.2-.4 3.6h-3.1-.2c.2-4.3.7-8.5 1-12.7V81l-.1-.4c-.2-.3-.6-.5-.6-.8l.3-.6a8 8 0 013-1.6c1.2-.4 2.6-.6 4-.6H27c1.8 0 3.2.4 4.1 1.3a4 4 0 011 2.8v.3l-.8 9.7c0 1-.1 2.2-.4 3.2h-3.3c.2-4.2.7-8.3 1-12.4V81z" fill="white"/><path d="M68.1 86.2c0-.3 0-.7.2-.8-.2.2-.2.5-.2.8z" fill="#009EE2"/><path d="M72 78.9c-2.1.2-3 1.6-3.6 3.2-.1.5-.3 1.1-.3 1.7l.2.2c2.2-.3 4.4-.8 6.7-1 .2-.2.2-.7.1-1-.1-1.7-.9-2.8-2.5-3.1h-.7zm6.1 9.8c.3.8-.3 1.9-.7 2.5-1.1 2-3 3.4-5.7 3.6-4.5-.1-6.3-3-6.5-7.4V87c.2-5.6 2.3-9.5 7.5-10h.8a5 5 0 014 2.2c.6.9 1.2 2.2 1.1 3.6 0 .4-.1.8-.4 1-.3.3-1.5.4-2.1.5l-7.1 1-.7.1c-.3.1-.2.5-.2.8v.6c.2 1.4.6 2.6 1.3 3.4.6.8 1.3 1.3 2.4 1.4 2.4.3 3.8-1 4.9-2 .4-.6.9-1.6 1.4-1z" fill="white"/><path d="M84.8 90a7 7 0 01-1.2-4v-1c0-1.4.3-2.7 1-3.8.5-1 1.4-2 2.8-2.2h.6c.7 0 .7.8.6 1.3L88 80c-.2-.2-.3-.5-.7-.5-.3 0-.7 0-.9.2-.2 0-.6.3-.8.6-1.6 1.5-2.5 5.2-1.3 8 .3.7.8 1.6 1.7 1.6l.8.5c-.5.9-1.8.2-2.1-.3z" fill="#2F2980"/><path d="M84.8 90c.3.6 1.6 1.3 2.1.4.5.2 1.3.2 1.8 0 .4.4 1.3-.2 1.6-.6.3-.2.6-.6.8-1 .3-.4.8-.7.7-1.1 0-.1.1-.2 0-.2.1-.2.5-.2.9-.2 0 0 0 .1.1 0a5 5 0 00-.1 1.3l-.4-.2c-.4.1-.7.5-1 .9-.7 1-1.6 2.2-3.4 2.3h-.6a3 3 0 01-2-.9l-.3-.3-.2-.3z" fill="#00B4EC"/><path d="M85 90.4zM54.5 80l.5-.5a4 4 0 01-.5.5z" fill="#009EE2"/><path d="M53.7 91.4c.4.5 1.5.8 1.8 0 .5.2 1 .3 1.5.1.2.5.9 0 1-.4.4-.5.3-1.5.4-2.5l.5-5.3c0-.8.3-2 .1-2.5 0-.2-.2-.4-.4-.4.1-.3 0-.4-.3-.5 0-.4.2-.7.1-.9 0-.2-.4-.3-.6-.4.9 0 1.4.5 2 1v.4l-.7 7.2c0 1.2-.1 2.5-.3 3.5-.2 1.4-1.2 2-3 2-1-.1-1.5-.7-2.1-1.3z" fill="#00B4EC"/><path d="M55 79.5c.5-.4 1.1-.8 2-.9h.8c.2.1.6.2.6.4.1.2 0 .5-.2.8h.1l-.5-.1-.4-.5c-.6-.3-1.3 0-1.7.2-.4.2-.8.6-1 1-1.7 1.8-3 7.2-1.1 10 .3.3.7.8 1.1.6l.8.5c-.3.7-1.4.4-1.8 0-1-1.2-1.3-3-1.3-5.3v-.3c.2-2.5.9-4.5 2-5.9.3-.1.4-.3.6-.5z" fill="#2F2980"/><path d="M57.5 88.6c0 .8 0 2.2-.5 2.5-.5.4-1.6 0-2-.3-.8-.7-1-2.1-1.1-3.6v-.8c0-2.3.8-5 2.3-6 .5-.3 1.4-.6 2-.1l-.7 8.3zm.8-8.7l-.5-.2-.4-.5c-.6-.3-1.3 0-1.7.2-.4.2-.8.6-1 1-1.7 1.8-3 7.2-1.1 10 .3.3.7.8 1.1.6l.8.5c.5.1 1 .2 1.5 0 .8-.2.8-1.6.9-2.6l.7-8.5c.1-.3 0-.4-.3-.5z" fill="#2F2980"/><path d="M75 83c.2-.2.1-.6.1-1 0 .3.1.8-.1 1z" fill="#009EE2"/><path d="M73.9 81.1c-.2-.3-.4-.7-.8-1 .3-.5 0-1.2-.5-1.2 1.6.3 2.4 1.4 2.5 3.2l-.1.8c-2.3.3-4.5.8-6.7 1H68c0-.7.2-1.3.3-1.8 0 .4 0 .8.2 1 .5.3 1.1 0 1.3-.5l3.5-.5c.7.6 1.3-.8.5-1z" fill="#00B4EC"/><path d="M70 82.2c.4-.9.8-1.7 2-1.9h.5c.7.1 1 .7 1 1.3l-3.5.6zm3.9-1c-.2-.4-.4-.8-.8-1l-.6-.3c-.1-.4-.4-.6-1-.5-1 .1-2.2 1.3-2.5 2-.2.7-.1 1.1.4 1.2 0 .2.3 0 .5 0l3.5-.5.6-.2-.1-.8z" fill="#2F2980"/><path d="M38.2 87.7l.4-.4-.4.4z" fill="#00B4EC"/><path d="M38 92c-.4-.3-.6-.8-.6-1.4v-.8c0-1 .4-1.6.8-2.1l.4-.4c.7-.6 1.5-1 2.5-1.3h.9c0 .4-.2.6-.3.9h-.3c0-.8-1.1-.2-1.5 0-1.2.6-2.4 1.7-2.3 3.3 0 .4.2 1 .5 1.3.2.1.6.3.8.1.1.2.4.2.6.3-.2.1-.3.4-.6.5-.4.1-.8 0-1-.3z" fill="#2F2980"/><path d="M38 92c.1.3.5.5 1 .4.2 0 .3-.4.5-.5l.3.1H40.7c.2.2.6.1.8 0 .6-.5.6-1.8.7-3v-1c0-.2-.1-.5-.3-.4v.1c-.1-.2.1-1-.2-.8l.3-.8c-.2-.2-.6-.2-.9-.1l1.5-.5h.3l.2.1-.3 4.2c-.2 1.5-.4 2.7-1.5 3.1l-1 .2c-1 0-1.8-.3-2.4-1z" fill="#00B4EC"/><path d="M38 92c.5.8 1.3 1.1 2.4 1h.9c1.1-.5 1.3-1.7 1.5-3.2l.3-4.2c0-.1-.3-.2-.5-.1l-1.5.5c-1 .3-1.8.7-2.5 1.3a2 2 0 00-.4.4c-.4.5-.8 1.1-.8 2v1c0 .5.2 1 .5 1.4zM42 77H42.7a5 5 0 013.2 1c.6.8.9 1.8.8 3.2v.3l-.7 9c-.1 1-.3 2-.7 2.6-.4.5-1.4 1-2.2 1.2l-2.6.5H39.2h-.3c-2.8-.2-5.2-1.3-5-4.3.3-4 4.4-5.2 7.9-6l1.5-.6.2-2.6V81c0-1.3-.6-2.1-1.8-2.2H41c-1 0-1.5.5-2 1.2-.6 1-.7 2.5-2.4 2.3-.6-.2-1-.6-1-1.4.1-1.3 1.1-2.2 2.2-2.8 1.1-.7 2.6-1 4-1h.3z" fill="white"/><path d="M42.6 85.5c.2-.1.4 0 .5.1l-.2-.1h-.3zm-3.3 3.2l.3-.3-.3.3zM59 76c.5-1.8 2-3 2.9-4.4.2-.5.3-1.2 1-1.4.3.4 0 .9-.3 1.2-.8 1.3-1.7 2.2-2.5 3.4-.1.3-.5 1.4-1 1.3L59 76z" fill="#009EE2"/><path d="M88.9 77c2 .1 3.4 1 4.2 2.5.7 1.4 0 3.3-1.6 3.1-1.1-.3-1-1.9-1.8-2.7l-.4-.5A2 2 0 0088 79h-.7c-1.4.2-2.3 1.2-2.9 2.2-.6 1-.9 2.4-1 3.9v1a7 7 0 001.5 4.3l.4.3c.5.5 1 .8 1.9.9h.6c1.8-.1 2.7-1.3 3.5-2.3.2-.4.5-.8 1-1l.3.3c.2.9-.2 1.8-.6 2.5a8.7 8.7 0 01-1.4 2c-1 .9-2.3 1.6-4.1 1.7H86c-4.5-.4-6-5-5.3-9.7.7-4.4 2.8-7.7 7.4-8.1h.8z" fill="white"/><path d="M34.5 81.5c-.2-1.6.5-2.7 1.3-3.5.7-.6 1.6-1.2 2.5-1.5 0 .4-.8.8-1.1 1a6 6 0 00-2.1 3c-.2.4-.2 1-.6 1z" fill="#009EE2"/><path d="M17.3 79.6v0z" fill="#2F2980"/><path d="M17 94.3l1-12.8c.1 0 0-.2 0-.2.4.1.5.5.5.8l-.3 3-.6 7.7c0 .5 0 1.2-.2 1.4 0 0-.4.4-.4.1zm56.4-12.2l.6-.2-.1-.8c.8.2.2 1.6-.5 1zm6.9.2a9 9 0 015.1-6v.4l-1.6 1.2c-1.2 1-2 2.3-2.7 4-.1.2-.3.8-.7.7l-.1-.3zm-15.6.4a9 9 0 015.4-6.3l-.1.3c-.5.5-1.1.8-1.7 1.2a10.4 10.4 0 00-2.8 4.4c-.1.3-.2.8-.7.8-.1 0 0-.2 0-.4zm-16.5 1c1-3.4 2.7-6 5.8-7.4 0 .3-.6.7-1 1-1.9 1.4-3.2 3.4-4 6-.1.3-.2 1-.7 1v-.5zm-6.7-.3l.7-.2c0-.8.2-1.7.1-2.6.9.3.6 2.8-.1 2.9l-.7-.1zm38 3.1c0-.6 0-1 .2-1.6 0 0 0-.2.2-.2.3 0 .2 1 .1 1.5 0 .8 0 1.7-.5 1.9v-.2-.8-.6zm-46.2 1.8c.9-1.8 2.4-3 4.4-3.7.1 0 0 .1 0 .1l-1.3.9c-1 .8-1.8 1.6-2.4 2.7-.1.2-.3.5-.6.4-.1 0 0-.3 0-.4zM57 91.5c.8-.2.8-1.6.9-2.6l.7-8.5c.2 0 .4.2.4.4.2.5 0 1.7-.1 2.5a407 407 0 00-.5 5.3c0 1 0 2-.3 2.5-.2.4-.9.9-1 .4zm31.7-1.1c1.4-.6 1.8-2.2 3-3 .2.1.1.2.1.3 0 .4-.4.7-.7 1-.2.5-.5.9-.8 1.1-.3.4-1.2 1-1.6.6zm-48 1.5c1.3-.2.8-3 1.1-4.2v-.1c.3-.1.4.2.5.3v1.2c-.2 1-.2 2.4-.8 2.8-.2.2-.6.3-.8 0zm-14.2 2.4c.3-4.3.8-8.4 1-12.7v-.3-.5c.4.1.5.4.5.8a3813.9 3813.9 0 01-.9 11c0 .6 0 1.3-.2 1.6 0 0-.3.3-.4.1z" fill="#009EE2"/><path d="M41.3 89.7c-.1.8 0 2-1 1.9H40c-1.4 0-1.3-2.2-.6-3l.3-.2c.5-.4 1.1-.8 1.8-1l-.1 2.3zm.4-2.8h-.3c0-.8-1.1-.2-1.5 0-1.2.6-2.4 1.7-2.3 3.3 0 .4.2 1 .5 1.3.2.1.6.3.8.1.1.2.4.2.6.3l.3.1H40.7c1.3-.3.8-3 1.1-4.3 0-.2.2-1 0-.8zM68.4 82c.6-1.6 1.5-3 3.5-3.2h.7c.6 0 .8.7.5 1.3l-.6-.3c-.1-.4-.4-.6-1-.5-1 .1-2.2 1.3-2.5 2-.2.7-.1 1.1.4 1.2 0 .2.3 0 .5 0-.2.4-.8.8-1.3.5-.2-.2-.2-.6-.2-1z" fill="#2F2980"/><path d="M56.2 75.8h0zm-30.6 0h1.5-1.5zm47 0h1-1zm-8.5 10.8v0zm-16.3.5v0zm5.6 8.6a6.4 6.4 0 01-3-1.5c.1.2.3.3.6.4.6-.4 1.7 0 2.7.1.7.1 1.5.2 2.3 0h.5c1 0 2-.2 3-.6.9-.2 1.8-.6 2.3-1.3.3-.6.4-1.4.5-2.4l1.4-16c.1-1 .3-2 .2-3l.3-1.1.5.2c-.2.3-.4.5-.4.8l-.1 1.5-1 10.1c0 1 0 2-.2 3-.1 1.7-.2 3.8-.5 5.6-.2 1-.5 1.6-1 2.1A8 8 0 0158 95l-2 .4c-.8 0-1.9.1-2.6.3zM27.2 80l-.8-.4c-.3-.7-1.6-.7-2.3-.3-1.2.8-1.3 2.5-1.4 4.4l-.8 8.7c0 1 0 2-.8 2.3-.7.3-1.9 0-2.6.3-.2 0-.2.2-.5.3-.2 0-.4 0-.5-.2.4 0 .4-.6.8-.8.5-.2 1.3.2 2 0h.8l.4-.1.4-3.6.6-7.2c.1-1.4.1-3 .9-3.9l.3-.3c.4-.4 1-.6 1.7-.7h1c.6 0 .9.7.6 1.3l.2.2zM27 95l.1.1c.3 0 .4-.6.7-.8.6-.2 1.4.2 2.1 0h.8l.3-.1c.3-1 .3-2.1.4-3.2l.8-9.7v-.3a4 4 0 00-1-2.8c-.4-.6-1-1.1-1-2l1.5 1c0 .5.3 1 .4 1.6.5 1.3.3 2.8.2 4.5l-.4 4.6-.2 3c-.2 1.4-.1 3.4-1 3.8-.6.4-1.8 0-2.6.3-.2 0-.3.2-.5.3-.3 0-.5 0-.6-.3zm8-12.7l.5.5-.5-.5zm1.6-.2c1.7.2 1.8-1.3 2.4-2.3.5-.7 1-1.1 2-1.2h.6c.3 0 .4 0 .5.2.1.3-.3.8 0 1a.8.8 0 00-.6-.2c-.3-1-1.5-.4-2 0-.5.7-.7 1.7-1.4 2.4-.4.4-1 .5-1.4.7-.1.1-.2.3-.5.4-.2 0-.5-.1-.7-.3.3-.3.5-.7 1.1-.7zm-2.8 11.7zm1 .8c0 .2.1 0 .2 0 .7-.5 1.8 0 2.7 0 .8.1 1.5.2 2.3 0h.5c1 0 1.9-.2 2.6-.4.8-.3 1.8-.7 2.2-1.2.4-.6.6-1.7.7-2.6l.7-9v-.3c.1-1.4-.2-2.4-.8-3.1-.4-.6-1-1-.9-1.9l1.4.8c-.1.7.3 1.5.5 2.2v2c0 2.7-.4 5.6-.6 8.2-.1 1.4-.2 2.8-.7 3.7-.6 1.1-2.2 1.7-3.6 2l-2.4.3c-.9.1-1.8 0-2.6.2-.9-.2-1.7-.4-2.3-.9zm34.9 1c-1.1-.2-2-.7-2.7-1.3l.4.4c1.1-.7 2.8.2 4.3 0a6.7 6.7 0 005.7-3.6c.4-.6 1-1.7.7-2.5l.1-1.2h.3l.7 1v-.2l.1.6v.3c-.1-.2-.5 0-.7 0-.9 3-2.7 5-5.7 6-1 .2-2 .2-3.2.5zm13-1c.1.3.4 0 .6-.1 1-.1 2.3.4 3.3.2 1.8-.1 3-.8 4-1.7.2 0 .3-.2.4-.3.4-.4.8-1 1.1-1.7.4-.7.8-1.6.6-2.5l.1-1.2h-.1c.3 0 .4.1.6.3l-.2.7v.7c-.2 2-1.4 3.7-2.6 4.6-.7.6-1.4 1-2.3 1.3-.9.3-1.8.3-3 .6l-.4.1c-.8-.2-1.6-.5-2.2-1zm8.6-11l-.8-.4c.3-.1.5-.6 1-.7 1.7.2 2.3-1.7 1.6-3-.5-1.4-1.8-2-2.1-3.4a6 6 0 011.8 1v.1c0 .5.3 1 .5 1.6.5 1 .6 2.8-.4 3.6-.5.4-1.2.6-1.6 1.1zm-22 6.5c-.6-.8-1-2-1.1-3.4-.1-.8.2-1.3.8-1.5l7-1c.7-.1 1.9-.2 2.2-.5.3-.2.4-.6.4-1 .1-1.4-.5-2.7-1-3.6-.5-1.1-1.7-1.6-2-3a6 6 0 011.8 1v.5l.6 1.1c.4.8.7 1.7.8 2.7.1.9.2 1.8-.2 2.4-.4.5-1.2.7-2 .8l-5 .7c-1.3.2-3 .1-3 1.6 0 .7.2 1.2.5 1.8.3.5.8 1.3 1.4 1.1l1 .6c-.5.8-1.7.2-2.1-.3zm15.5-.1a7 7 0 01-1.2-4v-1c0-1.5.3-2.8 1-4 .5-1 1.4-2 2.8-2.1h.6c.7 0 .7.8.6 1.3L88 80c-.2-.2-.3-.5-.7-.5-.3 0-.7 0-.9.2-.2 0-.6.3-.8.6-1.6 1.5-2.5 5.2-1.3 8 .3.7.8 1.6 1.7 1.6l.8.5c-.5.9-1.8.2-2.1-.3z" fill="#009EE2"/><path d="M55 79.5c.5-.4 1.1-.8 2-.9h.8c.2.1.6.2.6.4.1.2 0 .5-.2.8h.1l-.5-.1-.4-.5c-.6-.3-1.3 0-1.7.2-.4.2-.8.6-1 1-1.7 1.8-3 7.2-1.1 10 .3.3.7.8 1.1.6l.8.5c-.3.7-1.4.4-1.8 0-1-1.2-1.3-3-1.3-5.3v-.3c.2-2.5.9-4.5 2-5.9.3-.1.4-.3.6-.5zM38 92.1c-.4-.4-.6-.9-.6-1.5v-.8c0-1 .4-1.6.8-2.1l.4-.4c.7-.6 1.5-1 2.5-1.3h.9c0 .4-.2.6-.3.9h-.3c0-.8-1.1-.2-1.5 0-1.2.6-2.4 1.7-2.3 3.3 0 .4.2 1 .5 1.3.2.1.6.3.8.1.1.2.4.2.6.3-.2.1-.3.4-.6.5-.4.1-.8 0-1-.3zM17.2 79.6v0zM68.4 82c.6-1.6 1.5-3 3.5-3.2h.7c.6 0 .8.7.5 1.3l-.6-.3c-.1-.4-.4-.6-1-.5-1 .1-2.2 1.3-2.5 2-.2.7-.1 1.1.4 1.2 0 .2.3 0 .5 0-.2.4-.8.8-1.3.5-.2-.2-.2-.6-.2-1zM20.8 76.8c.1 0 0 .1 0 .2l-1.2.8c-.4.2-.8.5-1 .9-.5.5-.6 1.2-1.2 1.4v-.5c.4-1.6 2-2.2 3.4-2.8zm53 13.5c.8-.3 1.3-.8 1.8-1.3s.9-1.2 1.6-1.5c.2.4-.3.9-.5 1.2-.5.6-1 1-1.6 1.4-.3.2-1.1.6-1.3.2z" fill="#009EE2"/><path d="M23 46.4l.2-.4v.1l-.1.3zM48.5 20c2 .4 4.1.7 6.6.7h.4c6.2-.3 11.3-2.3 14.4-5.7l.2-.3 1-1.3c0-.6-.3-1-1-1.1h-.1l-1.4.6-.8.4c-2.4 1-5 1.6-8 1.7H57c-2.8 0-5-.4-7.1-.9l-2.1-.4-4.5-.9H42c-1.8.1-3.5.5-5.2 1.3h-.1l-.3.2-2 1.3c-.6.5-1.2 1-1.2 1.9l.1 1.2v.5l3.2 22.4.1.7c.1 1 .3 2.1.1 3-.3 1-1.6 1.2-2.7 1.2H30l-.8-.1h-3.7c-1.6-.1-2.6-.4-3.5-1.2-2-1.8-3.3-5-3.6-9.6v-1.4c0-1.9.5-3.3 1.3-4.2 0-.2.2-.3.3-.4.4-.3.9-.5 1.5-.5 1 0 2.2.6 2.5 1.4h.1v.2l-.8 1-.8.9a3 3 0 00-.3 2.5c.3.8.7 1.4 1.2 2 .5.7 1 1.4 1.2 2.4 0 .6 0 1-.5 1.4l-.1.2-.2.1v.2c-.2.2-.4.4-.4.7 0 .4 0 .6.2.8.3.3.8.4 1.1.4a4.8 4.8 0 002.5-.8c1.4-.9 3-1.9 3-4.2 0-1.6-.7-2.7-1.4-3.7l-.1-.3-.2-.2c-.2-.4-.5-.8-.5-1.1 0-.3.2-.6.4-.8l.1-.1c.6-.8.8-1.8.6-2.9-.4-2.2-1.9-3.8-4.7-4.9-1.4-.5-2.7-.8-4-.8h-.4c-5.7.6-9 4.1-9.6 10.3a19 19 0 005.3 14.5c2.8 2.6 5.7 3.8 9.4 4l2.3.1a934.6 934.6 0 018.9 0c4-.1 6.6-1.3 7.9-3.6v-.1l.2-.2c.3-.8.5-1.6.5-2.4v-1l-2-14.6-1.4-11v-.2H43.2c1.9.1 3.5.4 5.1.7z" fill="white"/><path d="M47.7 48.5l.3.4c.8 2.1 3 3.2 6.5 3.3H57.3c5.7-.3 8.7-3.8 9-10.7v-1.2c-.2-5.3-1.8-9.5-4.8-12.8 0-.2-.6-.7-.7-.8-2.2-2-4.5-2.9-7.4-3.1h-.2-.4a8.8 8.8 0 00-6.6 2.5l-1 1.4-.2.4c-.8 1.5-.7 3.7.2 5a4 4 0 003 1.8c.5 0 1 0 1.3-.2a3 3 0 001.6-1.6l.4-1c.3-1 .7-2.2 1.6-2.5l.8-.1c1 0 1.7.6 2.2 1l.4.4c1.6 1.8 2.4 4 2.5 7V39.2c0 1.9-.6 3.4-1.5 4.5l-.4.4c-.7.6-1.6.9-2.7.8-.8-.1-1.4-.5-2-.8l-.4-.2h-.1l-.2-.2h-.2c-.6-.3-1.2-.6-2-.7H49c-1.3.2-2 1-2.2 2.3v.5c.1 1.1.5 2 .8 2.8zM88 33.8v-.4a5.7 5.7 0 00-1.6-3 24.5 24.5 0 01-1.5-2.3c-.4-.8-.8-1.6-.6-2.7l.2-.5c.1-.3.3-.5.2-.9 0-.5-.4-.8-1-.8a3 3 0 00-1.2.3l-1.2.7-.1.1-.6.6a8.2 8.2 0 00-2.2 5v.8c.1 2.6 1.4 4.1 2.7 5.7l.4.4c.6.5 1.2 1 2.2 1h.4c.8 0 1.2-.4 1.8-.8 1.3-1 2-2.1 2-3.2z" fill="white"/><path d="M77 45.9l-.4-.4c-.6-.7-.7-1.8-.8-2.8l-1-9.6-.2-1.4c0-.8-.1-1.7-.3-2.4-.2-1.6-.9-3-2-4.3a18 18 0 01-2.8-4v-.2l-.1-.1-.2-.4c-.1-.3-.2-.5-.4-.6l-1-.2c-.4 0-.7 0-1 .2-1.3.3-1.3 1.4-1 3.3v.2l1.1 10.5.8 7.3.2 1.3c.1 1.3.2 2.6.5 3.7 1 4.1 4.3 6.3 10.1 6.5H86.2l4.5-.2c6.5-.8 10-4.6 10.5-11.7v-.3c.1-5.2-1.3-9.1-4.5-12.9l-.7-.7c-1.4-1.1-3-2.4-5.6-2.7h-.5c-1.4 0-2.8.8-2.8 2.7a3.1 3.1 0 001 2.2c.2.3.5.4.8.5l.5.3 1 .9c1.6 1.7 2.4 4.2 2.8 8.5v1.6c-.2 2.2-.7 4.8-2.8 5.5-.6.2-1.3.2-2 .2l-8.4.1h-.5c-1.2 0-2-.2-2.5-.6z" fill="white"/><path d="M69.8 12.1h.3-.3zm-28 6c.4-.2.8 0 1.2-.1h-1.2zm25 1.8c.2.5-.4 1.1-.5 1.5a1316.8 1316.8 0 011.9 18.4c.2 2.1.5 4.2.4 6.3-.5-2-.6-4.1-.8-6.3l-2-17.6c0-1.2 0-2 1-2.3z" fill="#009EE2"/><path d="M68.8 20v.1c.8 1.7 1.7 3.1 2.8 4.4.5.7 1.2 1.3 1.6 2 .4.8.8 1.7 1 2.7l.1 2 1.1 10c.2 1.8.2 3.8 1.3 4.7-1.2 0-1.6-1.3-1.8-2.3l-.4-3.8-.8-7.5c-.2-1.3-.2-2.6-.5-3.7-.2-1-.6-2-1.2-3l-1.9-2.2c-.3-.4-.6-.7-.8-1.2-.4-.6-1.1-1.5-.5-2.1z" fill="#2F2980"/><path d="M22.3 35c-.5-1.6.6-2.7 1.3-3.5.3-.4.6-.7.5-1v-.1c.7.2.2 1 0 1.4-.6.6-1 1-1.2 1.8-.2.5-.3 1-.6 1.3zm2.3 4.1c.3.1.5.6.5 1 0 .3-.1.7-.3 1-.4.7-.7 1-1.3 1.3-.1-1.1 1-1.3 1.2-2.3l-.1-1zM57 51h-1 1zm10-37.2l2.3-1.1c-.1.6-1.5 1.1-2.3 1.1zM35.6 46.5c2-.5 1.2-3.5 1-5.4-1.2-7.4-2.2-14.9-3.2-22.3 0-.7-.2-1.3 0-1.8.2-.7 1.3-1.4 1.8-1.8.8-.6 1.7-1 2.6-1.3-1 1-2.6 1.6-3.5 2.8a3 3 0 00-.6 1.4l.2 1.7 3 21.4.2 1.7c.1.7.4 1.4.3 2.2-.2.9-1 1.8-1.8 1.4z" fill="#009EE2"/><path d="M21.6 45.2c.4.4.9.7 1.5 1-.8 1-2.4-.3-3-.9-1.9-2.3-3-5.7-3-9.8v-1.3c0-1.5.3-3 .9-4.2.6-1.2 1.7-2.3 3.7-2.2 1 0 1.7.8 1.5 1.7A4 4 0 0022 29c-.8-1.2-2.4-.4-3.1.4C17.4 31 17 34 17.4 37c.4 2.7 1.1 5.1 2.5 7 .4.5 1 1.2 1.7 1.3 0 0 0-.1 0 0z" fill="#2F2980"/><path d="M24 43c-.3-.1-.4-.3-.5-.6.6-.2.9-.6 1.3-1.3.2-.3.3-.7.3-1 0-.4-.2-.9-.5-1-.5-1.7-1.8-2.5-2.3-4.2.3-.2.4-.8.6-1.3.2-.7.6-1.2 1.1-1.8.3-.4.8-1.2.1-1.4-.2-.4-.5-.7-.9-.9.2-1-.5-1.6-1.5-1.7 1 .1 1.8.5 2.5 1 .5.5 1.3 1.2 1 2.2-.4 1.2-1.8 1.7-2 3-.1 1 1 2 1.4 2.7.5.8 1 1.8 1.1 2.9v.7c0 .8-.6 1.3-.9 1.7h.2c-.5.2-.7.6-1 1z" fill="#00B4EC"/><path d="M24.2 24.5c1.1.4 2.2 1 3 1.7-.4-.2 0 .6 0 .8.6 1.1 1.1 2.7.6 4.2-.3.5-.9 1-.7 1.9 0 .4.3.7.5 1.1.7 1 1.4 2.1 1.5 3.6.2 2.4-1.5 3.6-3 4.3-.7.2-1.5.3-1.7 1L24 43c.3-.4.5-.8 1-1a6.4 6.4 0 003.1-1.8c.4-.5.8-1 .7-2 0-1-.5-1.8-1-2.6-.4-.8-1-1.5-1.2-2.4v-.7c.3-.8 1.2-1.4 1.2-2.7 0-1-.6-1.9-1.2-2.6l-1.9-1.9c-.2-.2-.7-.6-.5-.8z" fill="#2F2980"/><path d="M11 40.1c-.9-3-.8-7 .2-9.9 1-2.7 3-4.8 5.5-5.8-.4.6-1 .9-1.4 1.3-3 2.3-4.8 6.2-4.4 11.8v1.2c.1.4.3 1 .2 1.4z" fill="#009EE2"/><path d="M70.2 12.5c.1 0 .3 0 .3.2-2.9 3.6-6.6 6-12.2 6.9a35 35 0 01-4.4.4c-4 .2-7-.9-10.6-1.3-1.2-.2-2.6-.4-2.8.7-.1.5 0 1 0 1.6L43 38.3c.3 2 .7 4.2.8 6.3.5 7.6-7 7.3-14.3 7.1h-7.2c-1.8-.3-3.3-1-4.5-1.9.7-.2 1.5.1 2.2.3l2.1.5c1.4.4 3.2.5 5 .5l6.6.1c5.2.1 9.6-.5 9.9-5.4v-.4c-.5-4.4-1.2-8.7-1.8-13l-1.8-13c0-.8.3-1.2 1-1.3h.8L43 18l1.5.1c2.6.3 5 .9 7.6 1.2l2 .1h.5c6.1-.1 10.5-1.8 13.7-4.8.7-.7 1.6-1.1 2-2.1z" fill="#2F2980"/><path d="M45.5 14.5h0z" fill="#009EE2"/><path d="M44.5 18.1c2.7.3 5 .8 7.6 1.2-2.7-.3-5-.9-7.6-1.2zm-20.3 6.4c-.2.2.3.6.5.8l2 1.9a10 10 0 00-5.8-2.4c-2.9-.2-5.3 1-6.7 2.5a10.7 10.7 0 00-2.7 6.4c-.6 5.8 2 10.4 4.6 13.4l.4.4a13 13 0 005.6 3.1c-.7 0-1.4-.3-2.1-.5-.7-.2-1.5-.5-2.2-.4v.1a16.6 16.6 0 01-6.7-9.7l-.1-1.4v-1.2c-.5-5.6 1.3-9.5 4.3-11.8.4-.4 1-.7 1.4-1.3 2-.9 5.6-.8 7.5 0z" fill="#00B4EC"/><path d="M21.7 27.8c-2 0-3 1-3.7 2.2-.6 1.2-1 2.7-1 4.2v1.3c.2 4.1 1.2 7.5 3.1 9.8 1.2 1.5 3 2.5 5.6 2.3a715.5 715.5 0 009 .1c1 0 1.8-.3 2.4-.7l.3-.4c1-.8.7-2.8.5-4.3l-3.2-23-.3-1.8c.1-.4.6-.8 1-1a12 12 0 016.9-2.4c1.1 0 2.2.2 3.2.4h.4A44 44 0 0063.5 16c1.8-.3 3.5-.9 5-1.6l-.2.3c-3.2 3-7.6 4.7-13.7 4.8h-.4l-2.1-.1c-2.6-.4-5-1-7.6-1.2L43 18h-2c-.4.1-.8.1-1 .3v1.2l1.8 12.9c.6 4.3 1.3 8.6 1.8 13v.4c-.3 4.9-4.7 5.5-10 5.4h-6.5c-1.8 0-3.6-.2-5-.6a13 13 0 01-6-3.5c-2.6-3-5.2-7.6-4.6-13.4.3-2.6 1.2-4.8 2.7-6.4a8.6 8.6 0 016.7-2.5 10 10 0 015.7 2.4c.6.7 1.2 1.5 1.2 2.6 0 1.3-.9 1.9-1.2 2.7v.7c.2 1 .8 1.6 1.3 2.4.4.8.9 1.6 1 2.5 0 1-.4 1.6-.8 2.1l-.3.4a6.4 6.4 0 01-3 1.4c.3-.4.9-.9.9-1.7v-.7c0-1.1-.6-2-1.1-2.9C24 36 23 35 23.2 34c.2-1.3 1.6-1.8 2-3 .3-1-.5-1.7-1-2.2-.7-.5-1.6-.9-2.5-1z" fill="white"/><path d="M20.1 45.3c.6.6 2.2 2 3 .9 1.7.4 4 .4 6.2.4h3.3c1 0 2.1.1 3-.1 1 .4 1.7-.5 1.9-1.4 0-.8-.2-1.5-.3-2.2 0-.6-.2-1.1-.3-1.7l-3-21.4-.1-1.7c0-.5.3-1 .6-1.4.9-1.2 2.4-1.8 3.5-2.8 2-.9 4.8-1 7.3-.6l7 1.4c4.8.9 10.8.8 14.7-.9h.2c.8 0 2.2-.5 2.3-1.1.2-.2.5-.3.8-.2-.3 1-1.2 1.4-1.9 2l.2-.2c-1.5.7-3.2 1.3-5 1.6a44 44 0 01-17.6-1.3l-.4-.1c-1-.2-2-.5-3.2-.4-3 .1-5.2 1-7 2.4-.3.2-.8.6-.9 1l.3 1.8 3.2 23c.2 1.5.4 3.5-.5 4.3a3 3 0 01-.3.4c-.6.4-1.4.7-2.5.7h-8.9c-2.7 0-4.4-1-5.6-2.4zm51.6 5.2a7.3 7.3 0 01-3.1-4.4 1298 1298 0 00-2.1-21.5c-.1-1-.4-2.3-.2-3.2 0-.4.7-1 .5-1.5.4-.2 1-.1 1.6-.1-.2.2-.2.7-.3 1-.3-.1-1 0-1.2.2-.1.6 0 1.4.2 2l2 19.7c.2 1.5.4 3 .9 4 1 2.4 3 3.6 5.5 4.2-1 0-2.3-.7-3.4-.6l-.4.2z" fill="#00B4EC"/><path d="M92.2 24.6c1.4.5 2.5 1.3 3.5 2.2-.2 0 0 .2 0 .2 0 .2.3.5.5.8 1.7 2.3 3.1 4.9 3.8 8.2.8 4.2 0 8.5-1.9 11.3-1.8 2.7-5 4.2-9.3 4.4-3.8.2-8 .2-11.9.2-.4 0-1.3-.2-1.6 0a9.7 9.7 0 01-3.6-1.4l.4-.2c1.1-.1 2.4.6 3.4.6 1.5.3 3.2.5 5 .4h7.9c6.5 0 10.1-3.2 11.3-8.4a17 17 0 00-4.5-15.1c-1-1.2-2.4-1.8-3-3.2z" fill="#2F2980"/><path d="M87.4 27.5c-.4-1.6.4-2.8 1.5-3.1 0 .5-.4.8-.7 1.2-.3.5-.3 1-.5 1.5l-.3.3v.1z" fill="#009EE2"/><path d="M89.6 29.7c-.3-.3-.6-.4-1-.6.3-.6 1.2 0 1 .6z" fill="#2F2980"/><path d="M92.7 34.5c.7 1.3 1.1 4 1.1 6 0 2.5-.6 4.9-2.1 5.7-.2.1-.9.4-1 0 3.4-1.4 3-7.9 2-11.7z" fill="#009EE2"/><path d="M92.2 24.6c.6 1.4 2 2 3 3.1-.6-.5-1.3-1.1-2.2-1.5-1.2-.7-3-1.5-4.3-.5-.6.6-.3 2 .4 2.4l1.3.7c2.8 2.1 3.8 5.8 4 10.6v1c0 2.5-.5 4.5-1.7 5.8l-.4.4c-1 .9-2.5 1.2-4.3 1.1l-7.7.1H79c-1.6 0-2.6-.6-3.4-1.4.3.5 1.9.9 2 0 1.8.5 4.4.3 6.6.3 2.4 0 4.7 0 6.5-.4.1.3.8 0 1 0 1.5-1 2.1-3.3 2.1-5.8 0-2-.4-4.7-1.1-6-.6-2-1.5-3.8-3-4.8.1-.7-.8-1.2-1-.6-.7-.4-1.1-.9-1.3-1.6l.3-.4c.2-.5.2-1 .5-1.5.3-.4.7-.7.7-1.2 1-.5 2.5-.2 3.3.2z" fill="#00B4EC"/><path d="M95.2 27.7a17.2 17.2 0 014.5 15.1c-1.2 5.4-5 8.6-11.5 8.4h-4.7l-3 .1c-1.8 0-3.5 0-5-.4-2.5-.6-4.5-1.8-5.5-4.1a14 14 0 01-.8-4L67 23c-.1-.7-.3-1.5-.2-2.1.3-.1 1-.3 1.2-.1.8 2 2 3.5 3.2 5a7 7 0 011.5 2.6c.3 1 .4 2.2.6 3.6l1.2 11.2c0 1.2.3 2.3 1 3 .8 1 1.8 1.5 3.4 1.5h9c1.8 0 3.4-.3 4.3-1.2l.4-.4c1.2-1.3 1.7-3.3 1.8-5.7v-1.1c-.3-4.8-1.3-8.5-4-10.6l-1.4-.7c-.7-.5-1-1.8-.4-2.4 1.3-1 3.1-.2 4.3.5.9.4 1.6 1 2.2 1.5z" fill="white"/><path d="M46 26zm11 17.9l.4-.4-.4.4zm21.8-11.7c-.6-2-.1-4 .7-5.4a7 7 0 013.3-3.2c-.3.8-1 1.1-1.5 1.7a8.6 8.6 0 00-2.3 5.4c0 .4 0 1.2-.2 1.5z" fill="#009EE2"/><path d="M82.4 37.2c-1.7-1.3-3-2.9-3.6-5 .2-.3.2-1 .2-1.5.2-2.4 1.1-4.1 2.3-5.4.5-.6 1.2-1 1.5-1.7l1.1-.2c-.2.4-.3 1-.7 1.2l-1.3.8a7.4 7.4 0 00-2.3 4.6c0 1.6.5 3 1.3 4 .7 1 1.6 2 2.7 2.6-.6 0-1.1.2-1.2.6z" fill="#00B4EC"/><path d="M84 23.4s.3.1.3.3c-.5.4-1 1.3-1 2.4 0 .7.4 1.4.7 2l1 1.6c.8 1 2.1 2 2 4-.2 1-.7 1.6-1.3 2.2-.5.5-1.3.9-2 1.3 0 .1-.3.2-.3.4-.4 0-.7-.2-1-.4 0-.4.6-.6 1.2-.6.9 0 1.6-.7 2.1-1.1.5-.5 1-1.2 1-2 0-.7-.5-1.3-.8-1.8l-1.2-1.5-1-1.7c-.3-.7-.6-1.3-.6-2.2v-.7l.1-1c.4-.3.5-.8.7-1.2z" fill="#2F2980"/><path d="M44.7 31.6c-.6-3.7 2-6.3 4.5-7.2-.5.6-1 1-1.5 1.3a7.1 7.1 0 00-2.6 4.6c0 .5 0 1.1-.4 1.3zm14 3a10 10 0 01.8 6.6c-.3 1.4-1 2.7-2 3.4-.3.2-.8.4-1.3.2 3.1-1.2 3.6-6.5 2.5-10.2zM47.3 46.7c-.5-1.5 0-3.1 1.2-3.5v.3c0 .4-.5.8-.7 1.4l-.3.8c0 .3 0 .9-.2 1z" fill="#009EE2"/><path d="M49.9 50.9c-1.5-.8-2-2.5-2.6-4.2.2-.1.2-.7.2-1l.3-.8.7-1.4v-.3c.8-.2 1.7 0 2.3.2v.4c.4.7 1.9 1.9 2.6 1 .7.2 2 .3 2.8 0 .5.2 1 0 1.3-.2 1-.7 1.7-2 2-3.4a10 10 0 00-.8-6.6 9.7 9.7 0 00-2.4-4.4l-.7-.5c.2 0 .2-.1.2-.3l-.5-.9c-.3-.3-.7-.3-1-.4 1.2 0 2 .6 2.7 1.3l.5.5c1.9 2.1 3 5.2 2.8 9.1-.1 3.4-1.6 6.9-4.9 7-2.2.2-3.2-.7-4.6-1.4-.6-.2-1.6-.6-2.2-.2-.3.2-.4.7-.4 1 0 .8.3 1.6.6 2.3l.5.9.5.9c.5.6 1.7 1 2.5 1.2-.4 0-1.3-.3-1.8-.2-.2 0-.8.2-.6.4z" fill="#00B4EC"/><path d="M56.8 24.5a11.3 11.3 0 013.7 2.3l.2.4.8 1.1c2.4 3.5 4.5 8.9 3.7 15-.6 4.6-3.1 7.8-8 8.2-1.7.1-3.6 0-5.2.2h.1c-.9-.1-1.6-.4-2.2-.8-.2-.2.4-.4.6-.4l1.8.2a17.5 17.5 0 004.8.3c5.6-.2 7.9-4.3 8-9.7a19.9 19.9 0 00-4.6-13c-.7-1-2-1.8-2.9-2.7-.3-.3-.8-.7-.8-1.1z" fill="#2F2980"/><path d="M60.5 28.3a19.9 19.9 0 014.6 13c-.1 5.4-2.4 9.5-8 9.7h-1c-1.4 0-2.7 0-3.8-.3-.8-.2-2-.6-2.5-1.2l-.5-1-.5-.8c-.3-.7-.7-1.5-.6-2.2 0-.4.1-.9.4-1.1.6-.4 1.6 0 2.2.2 1.4.7 2.4 1.6 4.6 1.5 3.3-.2 4.8-3.7 5-7a12.6 12.6 0 00-3.4-9.7 4.3 4.3 0 00-2.8-1.3c-1 0-1.8.1-2.4.6l-.4.5c-1.3 1.1-.8 4.5-3.5 4.2a3 3 0 01-2.2-2.8c-.1-1.8 1-3.4 2-4.2 1.3-1 2.8-1.5 4.7-1.6h.4c3.6.2 5.9 1.6 7.7 3.5z" fill="white"/><path d="M56.8 24.5c0 .4.5.8.8 1.1 1 1 2.2 1.8 3 2.7a10.8 10.8 0 00-7.8-3.5h-.4c-2 .1-3.4.6-4.7 1.6-1 .8-2.1 2.4-2 4.2a3 3 0 002.2 2.8c-.7 0-1.4 0-1.4.5a4 4 0 01-1.8-2.3c.4-.2.3-.8.4-1.3.3-2 1.3-3.5 2.6-4.6.5-.4 1-.7 1.5-1.3 2-1 5.6-.7 7.6 0z" fill="#00B4EC"/><path d="M58.3 19.6l-4.4.4c-4 .2-7-.9-10.6-1.3-1.2-.2-2.6-.4-2.8.7-.1.5 0 1 0 1.6L43 38.3c.3 2 .7 4.2.8 6.3.5 7.6-7 7.3-14.3 7.1h-7.2c-1.8-.3-3.3-1-4.5-1.9a16.6 16.6 0 01-6.7-9.7c-1-3-.9-7 .1-9.9 1-2.7 3-4.8 5.5-5.8 2-.9 5.6-.8 7.5 0 1.1.5 2.2 1 3 1.8-.4-.2 0 .6 0 .8.6 1.1 1.1 2.7.6 4.2-.3.5-.9 1-.7 1.9 0 .4.3.7.5 1.1.7 1 1.4 2.1 1.5 3.6.2 2.4-1.5 3.6-3 4.3-.7.2-1.5.3-1.7 1L24 43c-.3-.1-.4-.3-.5-.6-.1-1.1 1-1.3 1.2-2.3l-.1-1c-.5-1.7-1.8-2.5-2.3-4.2-.5-1.5.6-2.6 1.3-3.4.3-.4.6-.7.5-1v-.1c-.2-.4-.5-.7-.9-.9A4 4 0 0022 29c-.8-1.2-2.4-.4-3.1.4C17.4 31 17 34 17.4 37c.4 2.7 1.1 5.1 2.5 7 .4.5 1 1.2 1.7 1.3h.1a4.8 4.8 0 001.4.9c1.7.4 4 .4 6.2.4h3.3c1 0 2.1.1 3-.1 2-.5 1.3-3.5 1-5.4l-3-22.3c-.2-.6-.3-1.3-.1-1.8.2-.7 1.3-1.4 1.8-1.8.8-.6 1.7-1 2.6-1.3 2-.9 4.8-1 7.3-.6l7 1.4c4.8.9 10.8.8 14.7-.9l2.5-1.1c.2-.2.5-.3.8-.2.1 0 .3 0 .3.2-2.9 3.6-6.6 6-12.2 6.9zM70 12h-.3l-2.2 1a20.6 20.6 0 01-8.3 1.8H56.8c-2.6-.1-4.8-.5-7-1-2.2-.4-4.3-1-6.6-1.3H42c-2 .2-3.8.7-5.3 1.3l-.4.3c-.7.4-1.4.7-2 1.3-.6.5-1.3 1-1.3 2l.2 1.7 3.1 22.4c.1 1 .5 2.6.2 3.6s-1.7 1.1-3 1h-8.1c-1.5 0-2.5-.4-3.4-1.1-2.2-2-3.2-5.5-3.5-9.5v-1.4c0-1.7.4-3.1 1.2-4.1l.3-.3c1.1-1 3.3-.3 3.8.8l-1.5 1.9c-.5.7-.6 1.6-.3 2.6.5 1.8 2 2.7 2.3 4.4 0 .6 0 1-.4 1.3l-.3.3c-.2.3-.5.6-.5 1 0 2 2.7 1.4 3.8.8l.3-.2c1.5-1 3.2-2 3.1-4.4 0-1.8-.8-3-1.5-4-.3-.5-.7-1-.7-1.3 0-.3.3-.6.5-.8a4 4 0 00.6-3c-.4-2.7-2.5-4.2-4.9-5-1.2-.5-2.5-.9-4.1-.9h-.3c-6 .6-9.3 4.5-9.8 10.5a19 19 0 005.4 14.7c2.3 2.1 5.3 3.8 9.4 4l2.4.1a3414.5 3414.5 0 018.9 0c3.7-.1 6.7-1.1 8-3.7l.2-.3A7.7 7.7 0 0045 45c-1-8.6-2.3-17-3.4-25.5H43.3c4.2.2 7.3 1.4 11.7 1.4h.4c6.2-.3 11.3-2.3 14.5-5.8.4-.5 1-1 1.2-1.7.1-.7-.3-1.2-1-1.3z" fill="#2F2980"/><path d="M83.2 24.6l-.1 1v.7c0 .9.3 1.5.6 2.2l1 1.7 1.2 1.5c.3.5.8 1.1.8 1.8 0 .8-.5 1.5-1 2-.5.4-1.2 1.2-2.1 1-1.1-.4-2-1.5-2.7-2.5-.8-1-1.4-2.4-1.3-4a7.4 7.4 0 012.3-4.6l1.3-.8z" fill="white"/><path d="M65.2 43.3c-.6 4.6-3.1 7.8-8 8.2-1.7.1-3.6 0-5.2.2h.1c-.9-.1-1.6-.4-2.2-.8-1.5-.8-2-2.5-2.6-4.2-.5-1.5 0-3.1 1.2-3.5.8-.2 1.7 0 2.3.2l2.6 1.3c.7.3 2 .4 2.8 0 3.1-1.1 3.6-6.4 2.5-10.1-.4-1.6-1.1-3-2-4l-.4-.4-.7-.5-1.2-.5c-.1-.4-.5-.6-1.2-.6-1.5.1-2.1 1.5-2.7 3-.2.7-.5 1.4-1 1.8l-1 .5s-.8.3-.8.5c-.5 0-.9-.3-1.2-.5a4 4 0 01-1.8-2.3c-.6-3.7 2-6.3 4.5-7.2a11.2 11.2 0 0111.4 2.4c-.2 0 0 .3 0 .4l.9 1.1c2.4 3.5 4.5 8.9 3.7 15zm1.4-3A20.3 20.3 0 0061 26.6c-2-1.7-4.2-3-7.6-3.2h-.3a9.2 9.2 0 00-7 2.5 8.5 8.5 0 00-1.3 1.9c-.8 1.6-.7 4 .2 5.2.9 1.3 2.6 2.4 4.6 1.6.8-.3 1.4-.9 1.7-1.6.5-1.1.7-3 2-3.4 1.2-.4 2.2.4 2.8 1l.3.2c1.4 1.7 2.3 3.9 2.4 6.8v1.5a7 7 0 01-1.4 4.4l-.4.4c-.6.5-1.5.8-2.6.7-1-.1-1.7-.7-2.3-1l-.4-.2c-.7-.3-1.3-.6-2.2-.7H49c-1.5.2-2.2 1.1-2.4 2.5v.6c.1 1.1.5 2 1 2.8l.1.4c1 2.4 3.4 3.3 6.7 3.4h2.9c6.2-.4 8.8-4.6 9.2-10.9v-1.2zm20.3-6.6c0 1-.6 1.6-1.2 2.2-.5.5-1.3.9-2 1.3 0 .1-.3.2-.3.4-.4 0-.7-.2-1-.4-1.7-1.3-3-2.9-3.6-5-.6-2-.1-4 .7-5.4a7 7 0 013.3-3.2l1.1-.2c.2 0 .4.1.4.3-.5.4-1 1.3-1 2.4 0 .7.4 1.4.7 2l1 1.6c.8 1 2.1 2 2 4zm1.3-.4c-.2-1.6-1.2-2.5-2.2-3.7l-.8-1.4c-.4-.8-1-1.7-.7-2.7.1-.5.5-.9.4-1.5-.1-1.2-1.6-1-2.4-.7l-1.4.9-.6.5a8.4 8.4 0 00-2.3 5.3v.7c.1 2.7 1.5 4.3 2.8 5.8l.4.4c.6.5 1.3 1 2.3 1.2h.4c.8-.1 1.3-.5 2-1 1-.8 2-1.9 2-3.3v-.5z" fill="#2F2980"/><path d="M50.8 43.4l2.6 1.3c-.7 1-2.2-.2-2.5-1 0 0-.2-.1 0-.3zm47.3 3.9c-1.8 2.7-5 4.2-9.3 4.4-3.8.2-8 .2-11.9.2-.4 0-1.3-.2-1.6 0a9.7 9.7 0 01-3.6-1.4 7.3 7.3 0 01-3.1-4.4c-.5-2-.6-4.1-.8-6.3l-2-17.6c0-1.2 0-2 1-2.3.4-.2 1 0 1.6-.1a.8.8 0 01.5.3c.7 1.7 1.6 3.1 2.7 4.4.5.7 1.2 1.3 1.6 2 .4.8.8 1.7 1 2.7l.1 2 1.1 10c.2 1.8.2 3.8 1.3 4.7l1 .6c1.7.4 4.3.2 6.5.2 2.4 0 4.7 0 6.5-.4 3.4-1.5 3-8 2-11.8-.6-2-1.5-3.8-3-4.8l-1-.6c-.7-.4-1.1-.9-1.3-1.6-.4-1.6.4-2.8 1.5-3.1 1-.5 2.5-.2 3.3.2 1.4.5 2.5 1.3 3.5 2.2-.1 0 0 .2 0 .2a20.5 20.5 0 014.3 9c.8 4.2 0 8.5-1.9 11.3zm3.4-7A18.3 18.3 0 0096 26.6a10.5 10.5 0 00-5.7-2.8h-.5c-1.7.1-3 1-3 2.9 0 .8.3 1.5.7 2l.3.4 1.4.7 1 .9c1.8 2 2.4 4.8 2.7 8.4v1.6c-.2 2.4-.7 4.7-2.6 5.3-.6.2-1.2.2-2 .2l-8.4.1c-1.2 0-2.3 0-3-.6l-.2-.3c-.6-.6-.7-1.7-.8-2.7L75 33l-.5-3.9a8.8 8.8 0 00-2.1-4.4 18.1 18.1 0 01-2.9-4.2c-.2-.4-.3-.8-.6-1-.5-.3-1.6-.3-2.2-.1-1.6.4-1.3 2-1.1 3.8l2 17.8c.1 1.8.2 3.5.6 5 1.1 4.4 4.9 6.3 10.3 6.6h7.7l4.5-.2c6.7-.8 10.1-5 10.7-12v-.2z" fill="#2F2980"/><path d="M75.6 46.3c-.7-.7-1-1.8-1-3L73.4 32c-.2-1.4-.3-2.6-.6-3.6a7 7 0 00-1.5-2.6 19 19 0 01-3.2-5c0-.4 0-.9.3-1.1.2 0 .3.1.4.3-.6.6.1 1.5.5 2l.8 1.3c.6.8 1.4 1.5 1.9 2.3.6.9 1 1.8 1.2 3 .3 1 .3 2.3.5 3.6l.8 7.5.4 3.8c.2 1 .6 2.2 1.7 2.4h.1l1 .5c-.2.8-1.8.4-2.1-.2zM51.8 28.7c.6-.5 1.3-.7 2.4-.6.4 0 .8.1 1.1.4.2.2.5.7.5 1 0 .1 0 .2-.2.2l-1.2-.5c-.1-.4-.5-.6-1.2-.6-1.5.1-2.1 1.5-2.7 3-.2.7-.5 1.4-1 1.8l-1 .5s-.8.3-.8.5c-.5 0-.9-.3-1.2-.5 0-.5.7-.6 1.4-.5 2.7.3 2.2-3 3.5-4.2l.4-.5z" fill="#2F2980"/><path d="M40 19.5v-1.2c.2-.2.6-.2 1-.2-.7.1-1 .5-1 1.4zm-13.4 13v0z" fill="#00B4EC"/><path d="M21.7 45.3l1.4.9c-.8 1-2.4-.3-3-.9-1.9-2.3-3-5.7-3-9.8v-1.3c0-1.5.3-3 .9-4.2.6-1.2 1.7-2.3 3.7-2.2 1 0 1.7.8 1.5 1.7A4 4 0 0022 29c-.8-1.2-2.4-.4-3.1.4C17.4 31 17 34 17.4 37c.4 2.7 1.1 5.1 2.5 7 .4.5 1 1.2 1.7 1.3zm2.5-20.8c1.1.4 2.2 1 3 1.7-.4-.2 0 .6 0 .8.6 1.1 1.1 2.7.6 4.2-.3.5-.9 1-.7 1.9 0 .4.3.7.5 1.1.7 1 1.4 2.1 1.5 3.6.2 2.4-1.5 3.6-3 4.3-.7.2-1.5.3-1.7 1L24 43c.3-.4.5-.8 1-1a6.4 6.4 0 003.1-1.8c.4-.5.8-1 .7-2 0-1-.5-1.8-1-2.6-.4-.8-1-1.5-1.2-2.4v-.7c.3-.8 1.2-1.4 1.2-2.7 0-1-.6-1.9-1.2-2.6l-1.9-1.9c-.2-.2-.7-.6-.5-.8z" fill="#009EE2"/><path d="M70.2 12.5c.1 0 .3 0 .3.2-2.9 3.6-6.6 6-12.2 6.9a35 35 0 01-4.4.4c-4 .2-7-.9-10.6-1.3-1.2-.2-2.6-.4-2.8.7-.1.5 0 1 0 1.6L43 38.3c.3 2 .7 4.2.8 6.3.5 7.6-7 7.3-14.3 7.1h-7.2c-1.8-.3-3.3-1-4.5-1.9.7-.2 1.5.1 2.2.3l2.1.5c1.4.4 3.2.5 5 .5l6.6.1c5.2.1 9.6-.5 9.9-5.4v-.4c-.5-4.4-1.2-8.7-1.8-13l-1.8-13c0-.8.3-1.2 1-1.3h.8L43 18l1.5.1c2.6.3 5 .9 7.6 1.2l2 .1h.5c6.1-.1 10.5-1.8 13.7-4.8.7-.7 1.6-1.1 2-2.1zm22 12.1c1.3.5 2.5 1.3 3.5 2.2-.2 0 0 .2 0 .2 0 .2.3.5.5.8 1.7 2.3 3.1 4.9 3.8 8.2.8 4.2 0 8.5-1.9 11.3-1.8 2.7-5 4.2-9.3 4.4-3.8.2-8 .2-11.9.2-.4 0-1.3-.2-1.6 0a9.7 9.7 0 01-3.6-1.4l.4-.2c1.1-.1 2.4.6 3.4.6 1.5.3 3.2.5 5 .4h7.7c6.7 0 10.3-3.1 11.5-8.4a17.2 17.2 0 00-4.5-15.2c-1-1-2.4-1.7-3-3v-.1z" fill="#009EE2"/><path d="M89.6 29.7c-.3-.3-.6-.4-1-.6.3-.6 1.2 0 1 .6zM84 23.4c.2 0 .4.1.4.3-.5.4-1 1.3-1 2.4 0 .7.4 1.4.7 2l1 1.6c.8 1 2.1 2 2 4-.2 1-.7 1.6-1.3 2.2-.5.5-1.3.9-2 1.3 0 .1-.3.2-.3.4-.4 0-.7-.2-1-.4 0-.4.6-.6 1.2-.6.9 0 1.6-.7 2.1-1.1.5-.5 1-1.2 1-2 0-.7-.5-1.3-.8-1.8l-1.2-1.5-1-1.7c-.3-.7-.6-1.3-.6-2.2v-.7l.1-1c.4-.3.5-.8.7-1.2zm-27.1 1a11.3 11.3 0 013.7 2.4l.2.4.8 1.1c2.4 3.5 4.5 8.9 3.7 15-.6 4.6-3.1 7.8-8 8.2-1.7.1-3.6 0-5.2.2h.1c-.9-.1-1.6-.4-2.2-.8-.2-.2.4-.4.6-.4l1.8.2a17.5 17.5 0 004.8.3c5.6-.2 7.9-4.3 8-9.7a19.9 19.9 0 00-4.6-13c-.7-1-2-1.8-2.9-2.7-.3-.3-.8-.7-.8-1.1z" fill="#009EE2"/><path d="M50.8 43.4l2.6 1.3c-.7 1-2.2-.2-2.5-1 0 0-.2-.1 0-.3zm24.8 3c-.7-.8-1-2-1-3.1L73.4 32c-.2-1.4-.3-2.6-.6-3.6a7 7 0 00-1.5-2.6 19 19 0 01-3.2-5c0-.4 0-.9.3-1.1.2 0 .3.1.4.3-.6.6.1 1.5.5 2l.8 1.3c.6.8 1.4 1.5 1.9 2.3.6.9 1 1.8 1.2 3 .3 1 .3 2.3.5 3.6l.8 7.5.4 3.8c.2 1 .6 2.2 1.7 2.4h.1l1 .5c-.2.8-1.8.4-2.1-.2zM51.8 28.6c.6-.5 1.3-.7 2.4-.6.4 0 .8.1 1.1.4.2.2.5.7.5 1 0 .1 0 .2-.2.2l-1.2-.5c-.1-.4-.5-.6-1.2-.6-1.5.1-2.1 1.5-2.7 3-.2.7-.5 1.4-1 1.8l-1 .5s-.8.3-.8.5c-.5 0-.9-.3-1.2-.5 0-.5.7-.6 1.4-.5 2.7.3 2.2-3 3.5-4.2l.4-.5z" fill="#009EE2"/></g><defs><radialGradient id="paint0_radial" cx="0" cy="0" r="1" gradientUnits="userSpaceOnUse" gradientTransform="matrix(0 65.1456 -45.8476 0 53.4 83)"><stop stop-color="#009EE2"/><stop offset="1" stop-color="#001971"/></radialGradient></defs></svg>